<svg xmlns="http://www.w3.org/2000/svg" xmlns:xlink="http://www.w3.org/1999/xlink" width="40" zoomAndPan="magnify" viewBox="0 0 30 30.000001" height="40" preserveAspectRatio="xMidYMid meet" version="1.0"><defs><clipPath id="7d6737e99c"><path d="M 0.484375 0 L 29.515625 0 L 29.515625 29.03125 L 0.484375 29.03125 Z M 0.484375 0 " clip-rule="nonzero"/></clipPath><clipPath id="3cc342ccd6"><path d="M 3.640625 3.15625 L 26.140625 3.15625 L 26.140625 25.65625 L 3.640625 25.65625 Z M 3.640625 3.15625 " clip-rule="nonzero"/></clipPath></defs><g clip-path="url(#7d6737e99c)"><path fill="#ffffff" d="M 0.484375 0 L 29.515625 0 L 29.515625 29.03125 L 0.484375 29.03125 Z M 0.484375 0 " fill-opacity="1" fill-rule="nonzero"/><path fill="#ffffff" d="M 0.484375 0 L 29.515625 0 L 29.515625 29.03125 L 0.484375 29.03125 Z M 0.484375 0 " fill-opacity="1" fill-rule="nonzero"/></g><path fill="#000000" d="M 12.132812 22.070312 C 12.804688 22.972656 13.570312 23.535156 14.359375 23.707031 L 14.359375 18.550781 C 13.117188 18.621094 11.925781 18.929688 10.816406 19.46875 C 11.164062 20.488281 11.605469 21.359375 12.132812 22.070312 Z M 12.132812 22.070312 " fill-opacity="1" fill-rule="nonzero"/><path fill="#000000" d="M 12.132812 6.742188 C 11.605469 7.453125 11.164062 8.328125 10.816406 9.34375 C 11.925781 9.886719 13.117188 10.195312 14.359375 10.265625 L 14.359375 5.105469 C 13.570312 5.277344 12.804688 5.84375 12.132812 6.742188 Z M 12.132812 6.742188 " fill-opacity="1" fill-rule="nonzero"/><path fill="#000000" d="M 10.035156 13.875 L 14.359375 13.875 L 14.359375 11.328125 C 13.015625 11.261719 11.722656 10.941406 10.511719 10.378906 C 10.230469 11.476562 10.074219 12.652344 10.035156 13.875 Z M 10.035156 13.875 " fill-opacity="1" fill-rule="nonzero"/><path fill="#000000" d="M 10.511719 18.433594 C 11.722656 17.871094 13.015625 17.550781 14.359375 17.484375 L 14.359375 14.9375 L 10.035156 14.9375 C 10.074219 16.160156 10.230469 17.335938 10.511719 18.433594 Z M 10.511719 18.433594 " fill-opacity="1" fill-rule="nonzero"/><path fill="#000000" d="M 9.875 19.996094 C 9.347656 20.328125 8.855469 20.71875 8.40625 21.152344 C 9.34375 22.050781 10.464844 22.753906 11.679688 23.199219 C 11.542969 23.042969 11.40625 22.878906 11.277344 22.707031 C 10.722656 21.957031 10.25 21.046875 9.875 19.996094 Z M 9.875 19.996094 " fill-opacity="1" fill-rule="nonzero"/><path fill="#000000" d="M 11.277344 6.109375 C 11.40625 5.933594 11.542969 5.769531 11.679688 5.617188 C 10.464844 6.0625 9.339844 6.765625 8.40625 7.664062 C 8.855469 8.097656 9.347656 8.484375 9.875 8.820312 C 10.25 7.769531 10.722656 6.855469 11.277344 6.109375 Z M 11.277344 6.109375 " fill-opacity="1" fill-rule="nonzero"/><path fill="#000000" d="M 8.972656 14.941406 L 5.546875 14.941406 C 5.660156 16.945312 6.398438 18.820312 7.679688 20.371094 C 8.246094 19.828125 8.875 19.347656 9.546875 18.945312 C 9.203125 17.6875 9.011719 16.339844 8.972656 14.941406 Z M 8.972656 14.941406 " fill-opacity="1" fill-rule="nonzero"/><path fill="#000000" d="M 9.546875 9.867188 C 8.875 9.464844 8.246094 8.988281 7.679688 8.445312 C 6.398438 9.996094 5.660156 11.867188 5.546875 13.875 L 8.972656 13.875 C 9.011719 12.472656 9.203125 11.125 9.546875 9.867188 Z M 9.546875 9.867188 " fill-opacity="1" fill-rule="nonzero"/><path fill="#000000" d="M 19.746094 14.941406 L 15.421875 14.941406 L 15.421875 17.484375 C 16.765625 17.550781 18.058594 17.871094 19.273438 18.4375 C 19.550781 17.335938 19.710938 16.160156 19.746094 14.941406 Z M 19.746094 14.941406 " fill-opacity="1" fill-rule="nonzero"/><path fill="#000000" d="M 18.503906 22.707031 C 18.375 22.878906 18.242188 23.042969 18.101562 23.199219 C 19.316406 22.753906 20.441406 22.050781 21.378906 21.152344 C 20.925781 20.71875 20.433594 20.328125 19.90625 19.996094 C 19.53125 21.046875 19.058594 21.957031 18.503906 22.707031 Z M 18.503906 22.707031 " fill-opacity="1" fill-rule="nonzero"/><path fill="#000000" d="M 20.234375 18.945312 C 20.90625 19.347656 21.535156 19.828125 22.101562 20.371094 C 23.386719 18.820312 24.121094 16.945312 24.234375 14.9375 L 20.808594 14.9375 C 20.769531 16.339844 20.578125 17.6875 20.234375 18.945312 Z M 20.234375 18.945312 " fill-opacity="1" fill-rule="nonzero"/><g clip-path="url(#3cc342ccd6)"><path fill="#000000" d="M 14.890625 3.15625 C 8.6875 3.15625 3.640625 8.203125 3.640625 14.40625 C 3.640625 20.609375 8.6875 25.65625 14.890625 25.65625 C 21.09375 25.65625 26.140625 20.609375 26.140625 14.40625 C 26.140625 8.203125 21.09375 3.15625 14.890625 3.15625 Z M 14.890625 24.828125 C 9.144531 24.828125 4.46875 20.152344 4.46875 14.40625 C 4.46875 8.660156 9.144531 3.984375 14.890625 3.984375 C 20.636719 3.984375 25.3125 8.660156 25.3125 14.40625 C 25.3125 20.152344 20.636719 24.828125 14.890625 24.828125 Z M 14.890625 24.828125 " fill-opacity="1" fill-rule="nonzero"/></g><path fill="#000000" d="M 15.421875 18.550781 L 15.421875 23.707031 C 16.210938 23.535156 16.980469 22.972656 17.648438 22.070312 C 18.175781 21.359375 18.621094 20.488281 18.964844 19.46875 C 17.855469 18.929688 16.664062 18.621094 15.421875 18.550781 Z M 15.421875 18.550781 " fill-opacity="1" fill-rule="nonzero"/><path fill="#000000" d="M 20.8125 13.875 L 24.234375 13.875 C 24.121094 11.867188 23.386719 9.992188 22.101562 8.445312 C 21.535156 8.988281 20.910156 9.464844 20.234375 9.867188 C 20.578125 11.125 20.769531 12.472656 20.8125 13.875 Z M 20.8125 13.875 " fill-opacity="1" fill-rule="nonzero"/><path fill="#000000" d="M 19.273438 10.378906 C 18.058594 10.941406 16.765625 11.261719 15.421875 11.328125 L 15.421875 13.875 L 19.746094 13.875 C 19.710938 12.652344 19.550781 11.476562 19.273438 10.378906 Z M 19.273438 10.378906 " fill-opacity="1" fill-rule="nonzero"/><path fill="#000000" d="M 19.90625 8.820312 C 20.433594 8.484375 20.925781 8.097656 21.375 7.664062 C 20.441406 6.765625 19.316406 6.0625 18.101562 5.617188 C 18.238281 5.769531 18.375 5.933594 18.503906 6.109375 C 19.058594 6.855469 19.53125 7.769531 19.90625 8.820312 Z M 19.90625 8.820312 " fill-opacity="1" fill-rule="nonzero"/><path fill="#000000" d="M 17.648438 6.742188 C 16.980469 5.84375 16.210938 5.277344 15.421875 5.105469 L 15.421875 10.265625 C 16.664062 10.195312 17.855469 9.886719 18.964844 9.34375 C 18.621094 8.328125 18.175781 7.453125 17.648438 6.742188 Z M 17.648438 6.742188 " fill-opacity="1" fill-rule="nonzero"/></svg>